<svg width="500" height="500" viewBox="0 0 500 500" xmlns="http://www.w3.org/2000/svg">
  <defs>
    <linearGradient id="blackShaft" x1="0%" y1="0%" x2="100%" y2="0%">
      <stop offset="0%" style="stop-color:#333333" />
      <stop offset="50%" style="stop-color:#080908" />
      <stop offset="100%" style="stop-color:#333333" />
    </linearGradient>
    <linearGradient id="greyShaft" x1="0%" y1="0%" x2="0%" y2="100%">
      <stop offset="0%" style="stop-color:#4CFFA9" />
      <stop offset="50%" style="stop-color:#1DB870" />
      <stop offset="100%" style="stop-color:#1DB870" />
    </linearGradient>
    <radialGradient id="blackHead" cx="50%" cy="50%" r="50%">
      <stop offset="0%" style="stop-color:#333333" />
      <stop offset="100%" style="stop-color:#080908" />
    </radialGradient>
    <radialGradient id="greyHead" cx="50%" cy="50%" r="50%">
      <stop offset="0%" style="stop-color:#4CFFA9" />
      <stop offset="100%" style="stop-color:#1DB870" />
    </radialGradient>
  </defs>

  <g fill="none" stroke="#E2E4E3" stroke-width="0.8" opacity="0.9">
    <circle cx="250" cy="250" r="180" stroke="#cccccc" stroke-width="1.2" />
    <ellipse cx="250" cy="250" rx="180" ry="65" />
    <ellipse cx="250" cy="170" rx="160" ry="40" />
    <ellipse cx="250" cy="330" rx="160" ry="40" />
    <ellipse cx="250" cy="110" rx="110" ry="25" />
    <ellipse cx="250" cy="390" rx="110" ry="25" />
    <ellipse cx="250" cy="250" rx="60" ry="180" />
    <ellipse cx="250" cy="250" rx="120" ry="180" />
    <ellipse cx="250" cy="250" rx="180" ry="180" transform="rotate(45, 250, 250) scale(0.3, 1)" />
    <ellipse cx="250" cy="250" rx="180" ry="180" transform="rotate(-45, 250, 250) scale(0.3, 1)" />
  </g>

  <g stroke="#999999" stroke-width="1" opacity="0.6">
    <line x1="250" y1="70" x2="250" y2="430" />
    <line x1="120" y1="310" x2="380" y2="190" />
    <line x1="120" y1="190" x2="380" y2="310" />
  </g>

  <g>
    <rect x="246" y="100" width="8" height="150" fill="url(#blackShaft)" />
    <path d="M 235 110 L 250 70 L 265 110 Z" fill="url(#blackHead)" />
  </g>

  <g transform="rotate(25, 250, 250)">
    <rect x="250" y="246" width="130" height="10" fill="url(#greyShaft)" />
    <path d="M 375 240 L 405 251 L 375 262 Z" fill="url(#greyHead)" />
  </g>

  <g font-family="Arial, sans-serif" font-size="24" font-weight="bold" fill="#616664">
    <text x="238" y="55">|0⟩</text>
    <text x="238" y="465">|1⟩</text>
    <text x="85" y="345">|x⟩</text>
    <text x="405" y="330">|y⟩</text>
  </g>

  <circle cx="250" cy="205" r="6" fill="#999999" />
  <circle cx="250" cy="250" r="2.5" fill="#080908" />
</svg>
